<svg xmlns="http://www.w3.org/2000/svg" width="32" height="32" viewBox="0 0 512 512"><path fill="#fff" d="m491.844 22.533l-83.42 14.865L196.572 249.25c3.262 4.815 5.37 10.72 5.37 16.932c0 5.863-1.71 11.35-4.643 15.996a53 53 0 0 0-16.027-2.477c-15.724 0-29.904 6.89-39.69 17.796l-9.112-9.113l17.237-17.237a546 546 0 0 1-13.19-17.6l-19.443 19.44l-13.215-13.215l21.828-21.827a548 548 0 0 1-12.792-20.068L72.093 258.68l58.314 58.314a53 53 0 0 0-2.49 16.063a52.9 52.9 0 0 0 4.592 21.564l-72.14 72.14l-14.56-14.56L21.013 437l14.558 14.56l-8.607 8.608l27.246 27.246l8.606-8.61l14.56 14.56l24.798-24.8l-14.557-14.556l72.158-72.16a52.9 52.9 0 0 0 21.498 4.562a53 53 0 0 0 16.063-2.49l58.363 58.363L296.5 401.48a549 549 0 0 1-20.068-12.793l-21.83 21.83L241.39 397.3l19.442-19.44a550 550 0 0 1-17.603-13.194l-17.238 17.238l-9.16-9.16c10.905-9.785 17.795-23.965 17.795-39.69c0-5.346-.806-10.51-2.285-15.39c4.703-3.04 10.288-4.817 16.265-4.816c6.21 0 11.776 1.77 16.52 4.955L476.98 105.95zm-66.227 53.012l13.215 13.215l-191.684 191.68l-13.214-13.213zM181.273 298.39c19.257 0 34.665 15.41 34.665 34.665c0 19.256-15.408 34.666-34.665 34.666s-34.666-15.41-34.666-34.665s15.41-34.666 34.666-34.666"/></svg>
