<svg xmlns="http://www.w3.org/2000/svg" width="32" height="32" viewBox="0 0 512 512"><path fill="#fff" d="M201.2 32L215 87h82l13.8-55zm-17 5.84L73.24 121.1l53.36 13.3l71.1-42.69zm143.6 0l-13.5 53.87l71.1 42.69l53.4-13.3zM210.4 105L137 149.1v213.8l73.4 44.1h91.2l73.4-44.1V149.1L301.6 105zM64 137.2v237.6l55-13.8V151zm384 0L393 151v210l55 13.8zm-192.1 2.4c-14.6 14.6-21.8 29.1-7.3 50.9c20.2 30.3 95 51.9 94.7 116.5c0 43.6-36.5 65.4-87.4 65.4s-87.3-36.4-87.3-72.7c0-14.5 7.3-29.2 29.1-43.7c-14.6 36.4 0 58.2 21.9 58.2c21.7 0 36.3-21.8 36.3-36.4c0-36.3-43.6-43.6-43.6-87.3c0-23.3 14.5-43.6 43.6-50.9m-129.3 238l-53.36 13.3l110.96 83.3l13.5-53.9zm258.8 0l-71.1 42.7l13.5 53.9l111-83.3zM215 425l-13.8 55h109.6L297 425z"/></svg>
